<svg xmlns="http://www.w3.org/2000/svg" width="64" height="64"><path fill="#FFF" fill-rule="nonzero" d="M32 8c13.233 0 24 10.752 24 23.968 0 13.217-10.767 23.969-24 23.969-13.235 0-24-10.752-24-23.969C8 18.752 18.765 8.001 32 8Zm3.544 27.455-.023.008c-11.106 3.864-15.31 11.435-15.89 12.57A20.198 20.198 0 0 0 32 52.25c2.775 0 5.42-.561 7.831-1.573-.323-1.885-1.505-7.97-4.287-15.22Zm8.136-1.3a26.433 26.433 0 0 0-4.084.306c2.521 6.955 3.615 12.659 3.887 14.218 4.44-3.059 7.603-7.837 8.52-13.362-.772-.235-4.086-1.163-8.323-1.161Zm-11.167-5.533c-8.845 2.626-17.434 2.873-20.114 2.881h-.135c-.233 0-.41-.001-.532-.004a20.15 20.15 0 0 0 5.095 13.916c.857-1.414 6.429-10.079 16.56-13.354.224-.07.45-.138.676-.202a67.559 67.559 0 0 0-1.55-3.237Zm15.277-9.308c-.708.918-4.133 4.974-11.227 7.898a62.367 62.367 0 0 1 1.705 3.81 38.054 38.054 0 0 1 4.622-.27c4.61 0 8.47.722 9.38.907a20.134 20.134 0 0 0-4.48-12.345Zm-24.5-5.595c-5.583 2.664-9.764 7.804-11.106 13.99h.198c1.868 0 9.609-.15 18.326-2.44-3.248-5.746-6.719-10.59-7.418-11.55ZM32 11.752c-1.573 0-3.103.18-4.573.522.825 1.114 4.294 5.906 7.46 11.697 6.84-2.589 9.906-6.418 10.471-7.19A20.203 20.203 0 0 0 32 11.751Z"/></svg>