<svg xmlns="http://www.w3.org/2000/svg" width="64" height="64"><path fill="#FFF" fill-rule="evenodd" d="M50.724 23.94c.033.192.054.385.054.585V42.58h-.002c0 1.89-1.513 3.42-3.38 3.42H16.38C14.513 46 13 44.469 13 42.58V24.525c0-.2.02-.393.053-.585L30.88 35.192c.022.014.046.023.067.035l.072.039c.126.065.256.118.388.152.014.005.028.007.041.01.146.034.294.056.44.056h.003c.147 0 .295-.021.44-.056.014-.003.027-.005.042-.01.132-.034.261-.087.388-.152l.072-.039c.021-.012.045-.021.066-.035L50.724 23.94ZM31.888 12l18.657 11.776H13.23L31.888 12Z"/></svg>